<?xml version="1.0" encoding="UTF-8" standalone="no"?>
<!-- Created with Inkscape (http://www.inkscape.org/) -->

<svg
   xmlns:dc="http://purl.org/dc/elements/1.1/"
   xmlns:cc="http://creativecommons.org/ns#"
   xmlns:rdf="http://www.w3.org/1999/02/22-rdf-syntax-ns#"
   xmlns:svg="http://www.w3.org/2000/svg"
   xmlns="http://www.w3.org/2000/svg"
   xmlns:sodipodi="http://sodipodi.sourceforge.net/DTD/sodipodi-0.dtd"
   xmlns:inkscape="http://www.inkscape.org/namespaces/inkscape"
   id="svg2"
   version="1.1"
   inkscape:version="0.91 r13725"
   xml:space="preserve"
   width="388.125"
   height="96.5625"
   viewBox="0 0 388.125 96.5625"
   sodipodi:docname="bazaarifulllogo.svg"><metadata
     id="metadata8"><rdf:RDF><cc:Work
         rdf:about=""><dc:format>image/svg+xml</dc:format><dc:type
           rdf:resource="http://purl.org/dc/dcmitype/StillImage" /><dc:title></dc:title></cc:Work></rdf:RDF></metadata><defs
     id="defs6"><clipPath
       clipPathUnits="userSpaceOnUse"
       id="clipPath16"><path
         d="m 28.267,66.704 c -3.806,-6.14 -5.932,-13.32 -6.248,-20.562 l 0,0 c 2.386,6.046 5.164,11.329 8.016,14.916 l 0,0 c 6.371,8.008 11.302,4.343 15.107,-2.683 l 0,0 c 3.504,-6.472 5.28,-16.885 1.926,-23.834 l 0,0 C 43.051,26.217 39.418,23.107 39.63,22.952 l 0,0 c 3.205,-2.347 7.925,-4.705 12.113,-5.99 l 0,0 c 2.907,2.84 5.505,7.369 7.024,11.094 l 0,0 c 2.05,5.023 3.185,10.531 3.185,16.26 l 0,0 c 0,8.449 -2.307,16.444 -6.601,23.024 l 0,0 C 52.29,72.031 48.15,76.1 42.03,76.124 l 0,0 c -0.021,0 -0.041,0 -0.062,0 l 0,0 c -6.459,0 -10.283,-3.902 -13.701,-9.42"
         id="path18"
         inkscape:connector-curvature="0" /></clipPath><linearGradient
       x1="0"
       y1="0"
       x2="1"
       y2="0"
       gradientUnits="userSpaceOnUse"
       gradientTransform="matrix(3.1737216,-90.883499,-90.883499,-3.1737216,40.373024,91.818703)"
       spreadMethod="pad"
       id="linearGradient24"><stop
         style="stop-opacity:1;stop-color:#ed1c24"
         offset="0"
         id="stop26" /><stop
         style="stop-opacity:1;stop-color:#f5821f"
         offset="0.51"
         id="stop28" /><stop
         style="stop-opacity:1;stop-color:#ffcb03"
         offset="1"
         id="stop30" /></linearGradient><clipPath
       clipPathUnits="userSpaceOnUse"
       id="clipPath38"><path
         d="m 75.338,17.158 c -2.806,-7.013 -16.6,-5.066 -22.18,-3.846 l 0,0 C 41.457,15.867 32.092,23.419 23.305,34.443 l 0,0 c 0.772,-3.132 1.791,-6.043 3.444,-9.174 l 0,0 C 30.363,17.886 36.205,11.393 43.858,6.975 l 0,0 C 51.175,2.75 59.252,0.751 67.098,1.181 l 0,0 c 5.592,0.305 11.187,1.856 14.267,7.144 l 0,0 c 3.271,5.613 1.804,10.891 -1.276,16.628 l 0,0 C 76.674,31.32 71.52,36.751 65.406,40.646 l 0,0 c 8.848,-9.359 11.988,-18.348 9.932,-23.488"
         id="path40"
         inkscape:connector-curvature="0" /></clipPath><linearGradient
       x1="0"
       y1="0"
       x2="1"
       y2="0"
       gradientUnits="userSpaceOnUse"
       gradientTransform="matrix(267.46457,-187.28072,-187.28072,-267.46457,-79.519905,117.66915)"
       spreadMethod="pad"
       id="linearGradient46"><stop
         style="stop-opacity:1;stop-color:#00aeef"
         offset="0"
         id="stop48" /><stop
         style="stop-opacity:1;stop-color:#0095da"
         offset="0.5"
         id="stop50" /><stop
         style="stop-opacity:1;stop-color:#2e3092"
         offset="1"
         id="stop52" /></linearGradient><clipPath
       clipPathUnits="userSpaceOnUse"
       id="clipPath60"><path
         d="M 20.449,41.646 C 13.132,37.421 7.362,31.425 3.811,24.416 l 0,0 C 1.279,19.42 -0.176,13.801 2.864,8.488 l 0,0 C 6.09,2.849 11.394,1.48 17.903,1.278 l 0,0 c 7.221,-0.224 14.686,1.63 21.117,4.977 l 0,0 c -4.157,2.705 -7.693,6.269 -10.439,9.857 l 0,0 C 26.329,15.383 23.6,14.936 21.269,14.831 l 0,0 c -8.744,-0.393 -13.73,1.832 -8.064,11.85 l 0,0 c 5.001,8.845 17.029,19.658 31.642,20.635 l 0,0 c -0.964,0.066 -1.931,0.099 -2.902,0.099 l 0,0 C 34.65,47.414 27.202,45.545 20.449,41.646"
         id="path62"
         inkscape:connector-curvature="0" /></clipPath><linearGradient
       x1="0"
       y1="0"
       x2="1"
       y2="0"
       gradientUnits="userSpaceOnUse"
       gradientTransform="matrix(-315.25616,304.43933,304.43933,315.25616,185.67603,-128.76497)"
       spreadMethod="pad"
       id="linearGradient68"><stop
         style="stop-opacity:1;stop-color:#fff200"
         offset="0"
         id="stop70" /><stop
         style="stop-opacity:1;stop-color:#00a650"
         offset="0.52"
         id="stop72" /><stop
         style="stop-opacity:1;stop-color:#00aeef"
         offset="1"
         id="stop74" /></linearGradient><clipPath
       clipPathUnits="userSpaceOnUse"
       id="clipPath82"><path
         d="m 0,77.25 310.5,0 L 310.5,0 0,0 0,77.25 Z"
         id="path84"
         inkscape:connector-curvature="0" /></clipPath><clipPath
       clipPathUnits="userSpaceOnUse"
       id="clipPath114"><path
         d="m 299.714,74.318 0,-7.775 9.884,0 0,2.966 c 0,1.326 -0.47,2.459 -1.41,3.399 l 0,0 c -0.941,0.94 -2.074,1.41 -3.388,1.41 l 0,0 -5.086,0 z"
         id="path116"
         inkscape:connector-curvature="0" /></clipPath><radialGradient
       fx="0"
       fy="0"
       cx="0"
       cy="0"
       r="1"
       gradientUnits="userSpaceOnUse"
       gradientTransform="matrix(5.6569858,0,0,-5.6569858,304.65616,70.430801)"
       spreadMethod="pad"
       id="radialGradient122"><stop
         style="stop-opacity:1;stop-color:#ffcb03"
         offset="0"
         id="stop124" /><stop
         style="stop-opacity:1;stop-color:#f5821f"
         offset="1"
         id="stop126" /></radialGradient><clipPath
       clipPathUnits="userSpaceOnUse"
       id="clipPath134"><path
         d="m 0,77.25 310.5,0 L 310.5,0 0,0 0,77.25 Z"
         id="path136"
         inkscape:connector-curvature="0" /></clipPath></defs><sodipodi:namedview
     pagecolor="#ffffff"
     bordercolor="#666666"
     borderopacity="1"
     objecttolerance="10"
     gridtolerance="10"
     guidetolerance="10"
     inkscape:pageopacity="0"
     inkscape:pageshadow="2"
     inkscape:window-width="1920"
     inkscape:window-height="1007"
     id="namedview4"
     showgrid="false"
     showguides="true"
     inkscape:guide-bbox="true"
     inkscape:zoom="3.8537921"
     inkscape:cx="200.76154"
     inkscape:cy="60.52697"
     inkscape:window-x="1920"
     inkscape:window-y="24"
     inkscape:window-maximized="1"
     inkscape:current-layer="g10" /><g
     id="g10"
     inkscape:groupmode="layer"
     inkscape:label="bazaarifulllogo"
     transform="matrix(1.25,0,0,-1.25,0,96.5625)"
     style="display:inline"><g
       id="g3557"
       transform="matrix(0.73366601,0,0,0.73366601,0.48375542,12.084546)"><g
         id="g12"><g
           clip-path="url(#clipPath16)"
           id="g14"><g
             id="g20"><g
               id="g22"><path
                 inkscape:connector-curvature="0"
                 id="path32"
                 style="fill:url(#linearGradient24);stroke:none"
                 d="m 28.267,66.704 c -3.806,-6.14 -5.932,-13.32 -6.248,-20.562 l 0,0 c 2.386,6.046 5.164,11.329 8.016,14.916 l 0,0 c 6.371,8.008 11.302,4.343 15.107,-2.683 l 0,0 c 3.504,-6.472 5.28,-16.885 1.926,-23.834 l 0,0 C 43.051,26.217 39.418,23.107 39.63,22.952 l 0,0 c 3.205,-2.347 7.925,-4.705 12.113,-5.99 l 0,0 c 2.907,2.84 5.505,7.369 7.024,11.094 l 0,0 c 2.05,5.023 3.185,10.531 3.185,16.26 l 0,0 c 0,8.449 -2.307,16.444 -6.601,23.024 l 0,0 C 52.29,72.031 48.15,76.1 42.03,76.124 l 0,0 c -0.021,0 -0.041,0 -0.062,0 l 0,0 c -6.459,0 -10.283,-3.902 -13.701,-9.42" /></g></g></g></g><g
         id="g34"><g
           clip-path="url(#clipPath38)"
           id="g36"><g
             id="g42"><g
               id="g44"><path
                 inkscape:connector-curvature="0"
                 id="path54"
                 style="fill:url(#linearGradient46);stroke:none"
                 d="m 75.338,17.158 c -2.806,-7.013 -16.6,-5.066 -22.18,-3.846 l 0,0 C 41.457,15.867 32.092,23.419 23.305,34.443 l 0,0 c 0.772,-3.132 1.791,-6.043 3.444,-9.174 l 0,0 C 30.363,17.886 36.205,11.393 43.858,6.975 l 0,0 C 51.175,2.75 59.252,0.751 67.098,1.181 l 0,0 c 5.592,0.305 11.187,1.856 14.267,7.144 l 0,0 c 3.271,5.613 1.804,10.891 -1.276,16.628 l 0,0 C 76.674,31.32 71.52,36.751 65.406,40.646 l 0,0 c 8.848,-9.359 11.988,-18.348 9.932,-23.488" /></g></g></g></g><g
         id="g56"><g
           clip-path="url(#clipPath60)"
           id="g58"><g
             id="g64"><g
               id="g66"><path
                 inkscape:connector-curvature="0"
                 id="path76"
                 style="fill:url(#linearGradient68);stroke:none"
                 d="M 20.449,41.646 C 13.132,37.421 7.362,31.425 3.811,24.416 l 0,0 C 1.279,19.42 -0.176,13.801 2.864,8.488 l 0,0 C 6.09,2.849 11.394,1.48 17.903,1.278 l 0,0 c 7.221,-0.224 14.686,1.63 21.117,4.977 l 0,0 c -4.157,2.705 -7.693,6.269 -10.439,9.857 l 0,0 C 26.329,15.383 23.6,14.936 21.269,14.831 l 0,0 c -8.744,-0.393 -13.73,1.832 -8.064,11.85 l 0,0 c 5.001,8.845 17.029,19.658 31.642,20.635 l 0,0 c -0.964,0.066 -1.931,0.099 -2.902,0.099 l 0,0 C 34.65,47.414 27.202,45.545 20.449,41.646" /></g></g></g></g></g><g
       id="g86"
       transform="matrix(1.1119028,0,0,1.1119028,83.907673,23.631889)"
       style="fill:#ffffff"><path
         d="m 0,0 11.861,0 c 2.64,0 4.665,0.518 6.076,1.555 1.314,0.94 1.977,2.543 1.977,4.798 0,2.253 -0.663,3.905 -1.977,4.942 -1.23,0.94 -3.291,1.41 -6.22,1.41 L 0,12.705 0,0 Z m 0,21.035 11.44,0 c 2.446,0 4.243,0.421 5.364,1.277 1.133,0.844 1.699,2.158 1.699,3.954 0,1.784 -0.566,3.11 -1.699,3.954 -0.941,0.759 -2.773,1.133 -5.509,1.133 L 0,31.353 0,21.035 Z m -9.607,-29.799 0,43.504 c 0,1.411 0.494,2.616 1.482,3.604 0.989,0.989 2.194,1.483 3.605,1.483 l 17.804,0 c 4.99,0 8.799,-1.037 11.439,-3.11 2.64,-2.254 3.954,-5.316 3.954,-9.185 0,-2.448 -0.518,-4.521 -1.555,-6.208 -1.037,-1.603 -2.495,-2.881 -4.375,-3.821 2.446,-1.037 4.327,-2.496 5.641,-4.376 1.217,-1.784 1.832,-4.147 1.832,-7.064 0,-4.701 -1.507,-8.377 -4.52,-11.017 -3.11,-2.544 -7.486,-3.81 -13.139,-3.81 l -22.168,0 z"
         style="fill:#ffffff;fill-opacity:1;fill-rule:nonzero;stroke:none"
         id="path88"
         inkscape:connector-curvature="0" /></g><g
       id="g90"
       transform="matrix(1.1119028,0,0,1.1119028,147.70866,15.616626)"
       style="fill:#ffffff"><path
         d="m 0,0 c -1.977,-1.037 -4.074,-1.675 -6.28,-1.917 -2.218,-0.229 -4.171,-0.349 -5.871,-0.349 -3.387,0 -6.352,0.916 -8.896,2.76 -2.543,1.833 -3.809,4.87 -3.809,9.113 0,3.954 1.157,6.775 3.46,8.474 2.302,1.688 5.255,2.821 8.824,3.388 0.47,0 1.036,0.072 1.699,0.217 0.663,0.132 1.41,0.253 2.254,0.349 4.147,0.567 6.22,1.784 6.22,3.677 0,1.41 -0.735,2.326 -2.194,2.748 -1.458,0.422 -2.796,0.639 -4.026,0.639 -1.314,0 -2.495,-0.193 -3.532,-0.567 -1.036,-0.373 -1.784,-1.072 -2.254,-2.109 l -9.462,0 c 0.373,2.917 1.687,5.316 3.954,7.208 2.543,2.158 6.171,3.243 10.872,3.243 5.28,0 9.234,-0.892 11.862,-2.688 2.736,-1.881 4.098,-4.521 4.098,-7.908 l 0,-12.861 C 6.919,9.655 6.232,6.702 4.87,4.593 3.508,2.471 1.88,0.94 0,0 m -2.254,17.37 c -1.314,-0.663 -3.158,-1.265 -5.509,-1.832 -2.17,-0.47 -3.242,-0.711 -3.242,-0.711 -1.7,-0.47 -2.93,-1.085 -3.677,-1.833 -0.663,-1.036 -0.989,-2.073 -0.989,-3.109 0,-1.411 0.422,-2.544 1.266,-3.388 0.856,-0.759 2.073,-1.133 3.677,-1.133 2.64,0 4.713,0.759 6.22,2.266 1.507,1.507 2.254,3.568 2.254,6.208 l 0,3.532 z"
         style="fill:#ffffff;fill-opacity:1;fill-rule:nonzero;stroke:none"
         id="path92"
         inkscape:connector-curvature="0" /></g><g
       id="g94"
       transform="matrix(1.1119028,0,0,1.1119028,158.27296,13.887617)"
       style="fill:#ffffff"><path
         d="m 0,0 0,7.486 20.203,22.312 -14.272,0 c -1.314,0 -2.447,0.446 -3.388,1.338 -0.94,0.904 -1.41,2.013 -1.41,3.327 l 0,3.11 30.787,0 0,-8.052 -19.914,-21.324 20.625,0 L 32.631,0 0,0 Z"
         style="fill:#ffffff;fill-opacity:1;fill-rule:nonzero;stroke:none"
         id="path96"
         inkscape:connector-curvature="0" /></g><g
       id="g98"
       transform="matrix(1.1119028,0,0,1.1119028,224.27273,15.616626)"
       style="fill:#ffffff"><path
         d="m 0,0 c -1.977,-1.037 -4.074,-1.675 -6.28,-1.917 -2.218,-0.229 -4.171,-0.349 -5.871,-0.349 -3.387,0 -6.352,0.916 -8.896,2.76 -2.543,1.833 -3.809,4.87 -3.809,9.113 0,3.954 1.157,6.775 3.46,8.474 2.302,1.688 5.255,2.821 8.824,3.388 0.47,0 1.036,0.072 1.699,0.217 0.663,0.132 1.41,0.253 2.254,0.349 4.147,0.567 6.22,1.784 6.22,3.677 0,1.41 -0.735,2.326 -2.194,2.748 -1.458,0.422 -2.796,0.639 -4.026,0.639 -1.314,0 -2.495,-0.193 -3.532,-0.567 -1.036,-0.373 -1.784,-1.072 -2.254,-2.109 l -9.462,0 c 0.373,2.917 1.687,5.316 3.954,7.208 2.543,2.158 6.171,3.243 10.872,3.243 5.28,0 9.234,-0.892 11.862,-2.688 2.736,-1.881 4.098,-4.521 4.098,-7.908 l 0,-12.861 C 6.919,9.655 6.232,6.702 4.87,4.593 3.508,2.471 1.88,0.94 0,0 m -2.254,17.37 c -1.314,-0.663 -3.158,-1.265 -5.509,-1.832 -2.17,-0.47 -3.242,-0.711 -3.242,-0.711 -1.7,-0.47 -2.93,-1.085 -3.677,-1.833 -0.663,-1.036 -0.989,-2.073 -0.989,-3.109 0,-1.411 0.423,-2.544 1.266,-3.388 0.856,-0.759 2.073,-1.133 3.677,-1.133 2.64,0 4.713,0.759 6.22,2.266 1.507,1.507 2.254,3.568 2.254,6.208 l 0,3.532 z"
         style="fill:#ffffff;fill-opacity:1;fill-rule:nonzero;stroke:none"
         id="path100"
         inkscape:connector-curvature="0" /></g><g
       id="g102"
       transform="matrix(1.1119028,0,0,1.1119028,261.53548,15.616626)"
       style="fill:#ffffff"><path
         d="m 0,0 c -1.977,-1.037 -4.074,-1.675 -6.28,-1.917 -2.218,-0.229 -4.171,-0.349 -5.871,-0.349 -3.387,0 -6.352,0.916 -8.896,2.76 -2.543,1.833 -3.809,4.87 -3.809,9.113 0,3.954 1.157,6.775 3.46,8.474 2.302,1.688 5.255,2.821 8.824,3.388 0.47,0 1.036,0.072 1.699,0.217 0.663,0.132 1.41,0.253 2.254,0.349 4.147,0.567 6.22,1.784 6.22,3.677 0,1.41 -0.735,2.326 -2.194,2.748 -1.458,0.422 -2.796,0.639 -4.026,0.639 -1.314,0 -2.495,-0.193 -3.532,-0.567 -1.036,-0.373 -1.784,-1.072 -2.254,-2.109 l -9.462,0 c 0.373,2.917 1.687,5.316 3.954,7.208 2.543,2.158 6.171,3.243 10.872,3.243 5.28,0 9.234,-0.892 11.862,-2.688 2.736,-1.881 4.098,-4.521 4.098,-7.908 l 0,-12.861 C 6.919,9.655 6.232,6.702 4.87,4.593 3.508,2.471 1.88,0.94 0,0 m -2.254,17.37 c -1.314,-0.663 -3.158,-1.265 -5.509,-1.832 -2.17,-0.47 -3.242,-0.711 -3.242,-0.711 -1.7,-0.47 -2.93,-1.085 -3.677,-1.833 -0.663,-1.036 -0.989,-2.073 -0.989,-3.109 0,-1.411 0.422,-2.544 1.266,-3.388 0.856,-0.759 2.073,-1.133 3.677,-1.133 2.64,0 4.713,0.759 6.22,2.266 1.507,1.507 2.254,3.568 2.254,6.208 l 0,3.532 z"
         style="fill:#ffffff;fill-opacity:1;fill-rule:nonzero;stroke:none"
         id="path104"
         inkscape:connector-curvature="0" /></g><g
       id="g106"
       transform="matrix(1.1119028,0,0,1.1119028,271.71684,13.887617)"
       style="fill:#ffffff"><path
         d="m 0,0 0,18.226 c 0,3.664 0.542,6.751 1.627,9.246 1.085,2.495 2.568,4.496 4.448,6.003 1.784,1.41 3.882,2.447 6.281,3.11 2.398,0.663 4.869,0.988 7.413,0.988 l 0.711,0 0.711,0 0,-10.029 -3.254,0 c -2.736,0 -4.762,-0.663 -6.076,-1.977 C 10.547,24.253 9.884,22.18 9.884,19.347 L 9.884,0 0,0 Z"
         style="fill:#ffffff;fill-opacity:1;fill-rule:nonzero;stroke:none"
         id="path108"
         inkscape:connector-curvature="0" /></g><g
       id="g110"
       transform="matrix(1.1119028,0,0,1.1119028,-34.64496,-14.718195)"><g
         id="g112"
         clip-path="url(#clipPath114)"><g
           id="g118"><g
             id="g120"><path
               d="m 299.714,74.318 0,-7.775 9.884,0 0,2.966 c 0,1.326 -0.47,2.459 -1.41,3.399 l 0,0 c -0.941,0.94 -2.074,1.41 -3.388,1.41 l 0,0 -5.086,0 z"
               style="fill:url(#radialGradient122);stroke:none"
               id="path128"
               inkscape:connector-curvature="0" /></g></g></g></g><g
       id="g138"
       transform="matrix(1.1119028,0,0,1.1119028,298.60765,55.665697)"
       style="fill:#ffffff"><path
         d="m 0,0 5.086,0 c 1.315,0 2.448,-0.47 3.388,-1.41 0.94,-0.94 1.411,-2.073 1.411,-3.388 l 0,-32.775 -9.885,0 L 0,0 Z"
         style="fill:#ffffff;fill-opacity:1;fill-rule:nonzero;stroke:none"
         id="path140"
         inkscape:connector-curvature="0" /></g></g></svg>